g Kit Cymbal Stand Bar Long 1
v -0 -0.38 -0.0090000015
v 0.0063639604 0.4055485 -0.006364003
v -0 0.4055485 -0.009000048
v 0.0063639604 -0.38 -0.006363986
v 0.009 0.4055485 -4.4703484E-08
v 0.009 -0.38 -1.3191993E-08
v 0.0063639604 0.4055485 0.0063639134
v 0.0063639604 -0.38 0.006363945
v -7.858034E-10 0.4055485 0.008999959
v -7.858034E-10 -0.38 0.00899999
v -0.0063639604 0.4055485 0.0063639134
v -0.0063639604 -0.38 0.006363945
v -0.009 0.4055485 -4.4703484E-08
v -0.009 -0.38 -1.3191993E-08
v -0.0063639614 0.4055485 -0.006364003
v -0.0063639614 -0.38 -0.006363986
v -0 0.4055485 -0.009000048
v -0 -0.38 -0.0090000015
v -0.0063639614 0.4055485 -0.006364003
v -0 0.4055485 -0.009000048
v 0.0063639604 0.4055485 -0.006364003
v -0.009 0.4055485 -4.4703484E-08
v 0.009 0.4055485 -4.4703484E-08
v -0.0063639604 0.4055485 0.0063639134
v 0.0063639604 0.4055485 0.0063639134
v -7.858034E-10 0.4055485 0.008999959
v -2.1458254E-07 0.31280816 -0.106219515
v 0.00248173 0.66563463 0.24806081
v -2.1458254E-07 0.6663616 0.24733385
v 0.00248173 0.31208122 -0.10549258
v 0.0035097853 0.66387963 0.2498158
v 0.0035097853 0.31032622 -0.10373758
v 0.00248173 0.66212463 0.2515708
v 0.00248173 0.30857122 -0.10198258
v -2.1487358E-07 0.6613977 0.25229776
v -2.1487358E-07 0.30784425 -0.10125561
v -0.0024821593 0.66212463 0.2515708
v -0.0024821593 0.30857122 -0.10198258
v -0.0035102146 0.66387963 0.2498158
v -0.0035102146 0.31032622 -0.10373758
v -0.0024821595 0.66563463 0.24806081
v -0.0024821595 0.31208122 -0.10549258
v -2.1458254E-07 0.6663616 0.24733385
v -2.1458254E-07 0.31280816 -0.106219515
v 0.00248173 0.31208122 -0.10549258
v -2.1458254E-07 0.31280816 -0.106219515
v -0.0024821595 0.31208122 -0.10549258
v 0.0035097853 0.31032622 -0.10373758
v -0.0035102146 0.31032622 -0.10373758
v 0.00248173 0.30857122 -0.10198258
v -0.0024821593 0.30857122 -0.10198258
v -2.1487358E-07 0.30784425 -0.10125561
v -0.012334708 0.41195628 -0.015866771
v 0.013205271 0.4007487 -0.011224404
v 0.013205271 0.41195628 -0.015866771
v -0.012334708 0.4007487 -0.011224404
v 0.013205269 0.39610636 -1.6853213E-05
v -0.012334708 0.39610636 -1.6853213E-05
v 0.01320527 0.40074873 0.011190712
v -0.012334708 0.40074873 0.011190712
v 0.01320527 0.41195628 0.015833005
v -0.012334708 0.41195628 0.015833005
v 0.013205269 0.4231638 0.011190698
v -0.012334708 0.4231638 0.011190698
v 0.01320527 0.4278062 -1.6853213E-05
v -0.012334708 0.4278062 -1.6853213E-05
v 0.01320527 0.4231638 -0.011224434
v -0.012334708 0.4231638 -0.011224434
v 0.013205271 0.41195628 -0.015866771
v -0.012334708 0.41195628 -0.015866771
v 0.013205271 0.4007487 -0.011224404
v 0.013205269 0.39610636 -1.6853213E-05
v 0.01320527 0.40074873 0.011190712
v 0.013205271 0.41195628 -0.015866771
v 0.01320527 0.41195628 0.015833005
v 0.01320527 0.4231638 -0.011224434
v 0.013205269 0.4231638 0.011190698
v 0.01320527 0.4278062 -1.6853213E-05
v -0.012334708 0.40074873 0.011190712
v -0.012334708 0.39610636 -1.6853213E-05
v -0.012334708 0.4007487 -0.011224404
v -0.012334708 0.41195628 -0.015866771
v -0.012334708 0.41195628 0.015833005
v -0.012334708 0.4231638 0.011190698
v -0.012334708 0.4231638 -0.011224434
v -0.012334708 0.4278062 -1.6853213E-05
v 0.012619335 0.41371232 0.0015114546
v 0.012619336 0.41499785 -0.0032862276
v 0.017239181 0.41499785 -0.0032862276
v 0.017239181 0.41371232 0.0015114546
v 0.012619336 0.41499785 -0.0032862276
v 0.012619336 0.41020012 -0.004571721
v 0.017239181 0.41020012 -0.004571721
v 0.017239181 0.41499785 -0.0032862276
v 0.012619336 0.41020012 -0.004571721
v 0.012619336 0.40891466 0.0002259165
v 0.017239181 0.40891466 0.0002259165
v 0.017239181 0.41020012 -0.004571721
v 0.012619336 0.40891466 0.0002259165
v 0.012619335 0.41371232 0.0015114546
v 0.017239181 0.41371232 0.0015114546
v 0.017239181 0.40891466 0.0002259165
v 0.017239181 0.40891466 0.0002259165
v 0.01860233 0.3972846 -0.003264621
v 0.01860233 0.39838296 -0.0073639005
v 0.017239181 0.41020012 -0.004571721
v 0.021859115 0.41020012 -0.004571721
v 0.021859115 0.40891466 0.0002259165
v 0.021859115 0.41371232 0.0015114546
v 0.021859115 0.41499785 -0.0032862276
v 0.021859115 0.41499785 -0.0032862276
v 0.020496015 0.42662787 0.0002041161
v 0.01860233 0.42662787 0.0002041161
v 0.017239181 0.41499785 -0.0032862276
v 0.017239181 0.41020012 -0.004571721
v 0.021859115 0.41020012 -0.004571721
v 0.020496015 0.39838296 -0.0073639005
v 0.01860233 0.39838296 -0.0073639005
v 0.01860233 0.3972846 -0.003264621
v 0.020496015 0.3972846 -0.003264621
v 0.020496015 0.39838296 -0.0073639005
v 0.01860233 0.39838296 -0.0073639005
v 0.021859115 0.40891466 0.0002259165
v 0.020496015 0.3972846 -0.003264621
v 0.01860233 0.3972846 -0.003264621
v 0.017239181 0.40891466 0.0002259165
v 0.017239181 0.41371232 0.0015114546
v 0.021859115 0.41371232 0.0015114546
v 0.020496015 0.42552948 0.0043035895
v 0.01860233 0.42552948 0.0043035895
v 0.021859115 0.41020012 -0.004571721
v 0.020496015 0.39838296 -0.0073639005
v 0.020496015 0.3972846 -0.003264621
v 0.021859115 0.40891466 0.0002259165
v 0.01860233 0.42662787 0.0002041161
v 0.020496015 0.42662787 0.0002041161
v 0.020496015 0.42552948 0.0043035895
v 0.01860233 0.42552948 0.0043035895
v 0.017239181 0.41499785 -0.0032862276
v 0.01860233 0.42662787 0.0002041161
v 0.01860233 0.42552948 0.0043035895
v 0.017239181 0.41371232 0.0015114546
v 0.021859115 0.41371232 0.0015114546
v 0.020496015 0.42552948 0.0043035895
v 0.020496015 0.42662787 0.0002041161
v 0.021859115 0.41499785 -0.0032862276
vt 1 0.5
vt 0.875 1
vt 1 1
vt 0.875 0.5
vt 0.75 1
vt 0.75 0.5
vt 0.625 1
vt 0.625 0.5
vt 0.5 1
vt 0.5 0.5
vt 0.375 1
vt 0.375 0.5
vt 0.25 1
vt 0.25 0.5
vt 0.125 1
vt 0.125 0.5
vt 0 1
vt 0 0.5
vt 0.080294356 0.41970563
vt 0.25 0.49
vt 0.41970563 0.41970563
vt 0.010000005 0.25
vt 0.49 0.24999999
vt 0.080294386 0.08029437
vt 0.41970563 0.08029437
vt 0.24999999 0.010000005
vt 1 0.5
vt 0.875 1
vt 1 1
vt 0.875 0.5
vt 0.75 1
vt 0.75 0.5
vt 0.625 1
vt 0.625 0.5
vt 0.5 1
vt 0.5 0.5
vt 0.375 1
vt 0.375 0.5
vt 0.25 1
vt 0.25 0.5
vt 0.125 1
vt 0.125 0.5
vt 0 1
vt 0 0.5
vt 0.875 0.5
vt 0 0.5
vt 0.125 0.5
vt 0.75 0.5
vt 0.25 0.5
vt 0.625 0.5
vt 0.375 0.5
vt 0.5 0.5
vt 1 0.5
vt 0.875 1
vt 1 1
vt 0.875 0.5
vt 0.75 1
vt 0.75 0.5
vt 0.625 1
vt 0.625 0.5
vt 0.5 1
vt 0.5 0.5
vt 0.375 1
vt 0.375 0.5
vt 0.25 1
vt 0.25 0.5
vt 0.125 1
vt 0.125 0.5
vt 0 1
vt 0 0.5
vt 0.41970563 0.41970563
vt 0.49 0.24999999
vt 0.41970563 0.08029437
vt 0.25 0.49
vt 0.24999999 0.010000005
vt 0.080294356 0.41970563
vt 0.080294386 0.08029437
vt 0.010000005 0.25
vt 0.9197056 0.08029437
vt 0.99 0.24999999
vt 0.9197056 0.41970563
vt 0.75 0.49
vt 0.75 0.010000005
vt 0.5802944 0.08029437
vt 0.5802944 0.41970563
vt 0.51 0.25
vt 0.95109814 0.40509284
vt 0.95109814 0.428106
vt 0.9741113 0.428106
vt 0.9741113 0.40509284
vt 0.95109814 0.428106
vt 0.95109814 0.45111918
vt 0.9741113 0.45111918
vt 0.9741113 0.428106
vt 0.95109814 0.45111918
vt 0.95109814 0.4741323
vt 0.9741113 0.4741323
vt 0.9741113 0.45111918
vt 0.95109814 0.4741323
vt 0.95109814 0.49714553
vt 0.9741113 0.49714553
vt 0.9741113 0.4741323
vt 0.9741113 0.4741323
vt 0.9741113 0.4741323
vt 0.9741113 0.45111918
vt 0.9741113 0.45111918
vt 0.9741113 0.45111918
vt 0.9741113 0.4741323
vt 0.99712443 0.4741323
vt 0.99712443 0.45111918
vt 0.9741113 0.428106
vt 0.9741113 0.428106
vt 0.9741113 0.428106
vt 0.9741113 0.428106
vt 0.9741113 0.45111918
vt 0.9741113 0.45111918
vt 0.9741113 0.45111918
vt 0.9741113 0.45111918
vt 0.9741113 0.4741323
vt 0.9741113 0.4741323
vt 0.9741113 0.45111918
vt 0.9741113 0.45111918
vt 0.9741113 0.4741323
vt 0.9741113 0.4741323
vt 0.9741113 0.4741323
vt 0.9741113 0.4741323
vt 0.9741113 0.49714553
vt 0.9741113 0.49714553
vt 0.9741113 0.49714553
vt 0.9741113 0.49714553
vt 0.9741113 0.45111918
vt 0.9741113 0.45111918
vt 0.9741113 0.4741323
vt 0.9741113 0.4741323
vt 0.9741113 0.428106
vt 0.9741113 0.428106
vt 0.9741113 0.40509284
vt 0.9741113 0.40509284
vt 0.9741113 0.428106
vt 0.9741113 0.428106
vt 0.9741113 0.40509284
vt 0.9741113 0.40509284
vt 0.99712443 0.4741323
vt 0.99712443 0.4741323
vt 0.99712443 0.45111918
vt 0.99712443 0.45111918
vn -0 0 -1
vn 0.7071064 0 -0.70710707
vn -0 0 -1
vn 0.7071064 0 -0.70710707
vn 1 0 0
vn 1 0 0
vn 0.70710695 0 0.70710653
vn 0.7071069 0 0.7071066
vn -0 0 1
vn -0 0 1
vn -0.70710707 0 0.7071065
vn -0.707107 0 0.7071065
vn -1 0 0
vn -1 0 0
vn -0.7071065 0 -0.70710707
vn -0.70710653 0 -0.707107
vn -0 0 -1
vn -0 0 -1
vn -0 1 0
vn -0 1 0
vn -0 1 0
vn -0 1 0
vn -0 1 0
vn -0 1 0
vn -0 1 0
vn -0 1 0
vn -0 0.70710665 -0.7071068
vn 0.7071064 0.5000002 -0.50000024
vn -0 0.7071067 -0.70710677
vn 0.70710605 0.5000003 -0.5000005
vn 1 0 0
vn 1 0 0
vn 0.7071087 -0.49999863 0.49999872
vn 0.70710903 -0.4999984 0.49999842
vn -0 -0.7071067 0.7071068
vn -0 -0.70710665 0.7071068
vn -0.70710874 -0.4999985 0.49999863
vn -0.70710903 -0.49999833 0.49999833
vn -1 0 0
vn -1 0 0
vn -0.70710653 0.5000002 -0.50000024
vn -0.70710605 0.5000004 -0.5000004
vn -0 0.7071067 -0.70710677
vn -0 0.70710665 -0.7071068
vn -0 -0.70710796 -0.7071056
vn -0 -0.70710796 -0.7071056
vn -0 -0.70710796 -0.7071056
vn -0 -0.70710796 -0.7071056
vn -0 -0.70710796 -0.7071056
vn -0 -0.70710796 -0.7071056
vn -0 -0.70710796 -0.7071056
vn -0 -0.70710796 -0.7071056
vn -0 0 -1
vn -0 -0.70710737 -0.7071062
vn -0 0 -1
vn -0 -0.70710737 -0.7071061
vn -0 -1 0
vn -0 -1 0
vn -0 -0.70710397 0.7071096
vn -0 -0.70710397 0.7071096
vn -0 0 1
vn -0 0 1
vn -0 0.707104 0.7071095
vn -0 0.707104 0.7071095
vn -0 1 0
vn -0 1 0
vn -0 0.70710516 -0.7071083
vn -0 0.70710516 -0.7071083
vn -0 0 -1
vn -0 0 -1
vn 1 0 0
vn 1 0 0
vn 1 0 0
vn 1 0 0
vn 1 0 0
vn 1 0 0
vn 1 0 0
vn 1 0 0
vn -1 0 0
vn -1 0 0
vn -1 0 0
vn -1 0 0
vn -1 0 0
vn -1 0 0
vn -1 0 0
vn -1 0 0
vn -0 0.9659276 0.25881246
vn -0 0.9659276 0.25881246
vn -0 0.9659276 0.25881246
vn -0 0.9659276 0.25881246
vn -0 0.2588087 -0.9659286
vn -0 0.2588087 -0.9659286
vn -0 0.2588087 -0.9659286
vn -0 0.2588087 -0.9659286
vn -0 -0.9659295 -0.25880522
vn -0 -0.9659295 -0.25880522
vn -0 -0.9659295 -0.25880522
vn -0 -0.9659295 -0.25880522
vn -0 -0.25881976 0.96592563
vn -0 -0.25881976 0.96592563
vn -0 -0.25881976 0.96592563
vn -0 -0.25881976 0.96592563
vn -0.99375206 -0.10780743 -0.02888566
vn -0.99375206 -0.10780743 -0.02888566
vn -0.99375206 -0.10780743 -0.02888566
vn -0.99375206 -0.10780743 -0.02888566
vn 1 0 0
vn 1 0 0
vn 1 0 0
vn 1 0 0
vn -0 0.2874496 -0.95779574
vn -0 0.2874496 -0.95779574
vn -0 0.2874496 -0.95779574
vn -0 0.2874496 -0.95779574
vn -0 0.25880828 -0.96592873
vn -0 0.25880828 -0.96592873
vn -0 0.2299502 -0.97320247
vn -0 0.2299502 -0.97320247
vn -0 -0.9659267 -0.25881585
vn -0 -0.9659267 -0.25881585
vn -0 -0.9659267 -0.25881585
vn -0 -0.9659267 -0.25881585
vn -0 -0.25882047 0.9659255
vn -0 -0.28746223 0.9577919
vn -0 -0.28746223 0.9577919
vn -0 -0.25882047 0.9659255
vn -0 -0.25882047 0.9659255
vn -0 -0.25882047 0.9659255
vn -0 -0.22994705 0.9732031
vn -0 -0.22994705 0.9732031
vn 0.99375254 -0.10780347 -0.02888464
vn 0.99375254 -0.10780347 -0.02888464
vn 0.99375254 -0.10780347 -0.02888464
vn 0.99375254 -0.10780347 -0.02888464
vn -0 0.9659298 0.25880432
vn -0 0.9659298 0.25880432
vn -0 0.9659298 0.25880432
vn -0 0.9659298 0.25880432
vn -0.99375206 0.107807845 0.02888601
vn -0.99375206 0.107807845 0.02888601
vn -0.99375206 0.107807845 0.02888601
vn -0.99375206 0.107807845 0.02888601
vn 0.99375254 0.10780376 0.02888499
vn 0.99375254 0.10780376 0.02888499
vn 0.99375254 0.10780376 0.02888499
vn 0.99375254 0.10780376 0.02888499
g Kit Cymbal Stand Bar Long 1_0
f 3/3/3 2/2/2 1/1/1
f 2/2/2 4/4/4 1/1/1
f 2/2/2 5/5/5 4/4/4
f 5/5/5 6/6/6 4/4/4
f 5/5/5 7/7/7 6/6/6
f 7/7/7 8/8/8 6/6/6
f 7/7/7 9/9/9 8/8/8
f 9/9/9 10/10/10 8/8/8
f 9/9/9 11/11/11 10/10/10
f 11/11/11 12/12/12 10/10/10
f 11/11/11 13/13/13 12/12/12
f 13/13/13 14/14/14 12/12/12
f 13/13/13 15/15/15 14/14/14
f 15/15/15 16/16/16 14/14/14
f 15/15/15 17/17/17 16/16/16
f 17/17/17 18/18/18 16/16/16
f 21/21/21 20/20/20 19/19/19
f 19/19/19 22/22/22 21/21/21
f 22/22/22 23/23/23 21/21/21
f 22/22/22 24/24/24 23/23/23
f 24/24/24 25/25/25 23/23/23
f 24/24/24 26/26/26 25/25/25
f 29/29/29 28/28/28 27/27/27
f 28/28/28 30/30/30 27/27/27
f 28/28/28 31/31/31 30/30/30
f 31/31/31 32/32/32 30/30/30
f 31/31/31 33/33/33 32/32/32
f 33/33/33 34/34/34 32/32/32
f 33/33/33 35/35/35 34/34/34
f 35/35/35 36/36/36 34/34/34
f 35/35/35 37/37/37 36/36/36
f 37/37/37 38/38/38 36/36/36
f 37/37/37 39/39/39 38/38/38
f 39/39/39 40/40/40 38/38/38
f 39/39/39 41/41/41 40/40/40
f 41/41/41 42/42/42 40/40/40
f 41/41/41 43/43/43 42/42/42
f 43/43/43 44/44/44 42/42/42
f 47/47/47 46/46/46 45/45/45
f 45/45/45 48/48/48 47/47/47
f 48/48/48 49/49/49 47/47/47
f 48/48/48 50/50/50 49/49/49
f 50/50/50 51/51/51 49/49/49
f 50/50/50 52/52/52 51/51/51
f 55/55/55 54/54/54 53/53/53
f 54/54/54 56/56/56 53/53/53
f 54/54/54 57/57/57 56/56/56
f 57/57/57 58/58/58 56/56/56
f 57/57/57 59/59/59 58/58/58
f 59/59/59 60/60/60 58/58/58
f 59/59/59 61/61/61 60/60/60
f 61/61/61 62/62/62 60/60/60
f 61/61/61 63/63/63 62/62/62
f 63/63/63 64/64/64 62/62/62
f 63/63/63 65/65/65 64/64/64
f 65/65/65 66/66/66 64/64/64
f 65/65/65 67/67/67 66/66/66
f 67/67/67 68/68/68 66/66/66
f 67/67/67 69/69/69 68/68/68
f 69/69/69 70/70/70 68/68/68
f 73/73/73 72/72/72 71/71/71
f 71/71/71 74/74/74 73/73/73
f 74/74/74 75/75/75 73/73/73
f 74/74/74 76/76/76 75/75/75
f 76/76/76 77/77/77 75/75/75
f 76/76/76 78/78/78 77/77/77
f 81/81/81 80/80/80 79/79/79
f 79/79/79 82/82/82 81/81/81
f 79/79/79 83/83/83 82/82/82
f 83/83/83 84/84/84 82/82/82
f 84/84/84 85/85/85 82/82/82
f 84/84/84 86/86/86 85/85/85
f 89/89/89 88/88/88 87/87/87
f 90/90/90 89/89/89 87/87/87
f 93/93/93 92/92/92 91/91/91
f 94/94/94 93/93/93 91/91/91
f 97/97/97 96/96/96 95/95/95
f 98/98/98 97/97/97 95/95/95
f 101/101/101 100/100/100 99/99/99
f 102/102/102 101/101/101 99/99/99
f 105/105/105 104/104/104 103/103/103
f 106/106/106 105/105/105 103/103/103
f 109/109/109 108/108/108 107/107/107
f 110/110/110 109/109/109 107/107/107
f 113/113/113 112/112/112 111/111/111
f 114/114/114 113/113/113 111/111/111
f 114/114/114 111/111/111 115/115/115
f 111/111/111 116/116/116 115/115/115
f 116/116/116 117/117/117 115/115/115
f 117/117/117 118/118/118 115/115/115
f 121/121/121 120/120/120 119/119/119
f 122/122/122 121/121/121 119/119/119
f 125/125/125 124/124/124 123/123/123
f 126/126/126 125/125/125 123/123/123
f 126/126/126 123/123/123 127/127/127
f 123/123/123 128/128/128 127/127/127
f 128/128/128 129/129/129 127/127/127
f 129/129/129 130/130/130 127/127/127
f 133/133/133 132/132/132 131/131/131
f 134/134/134 133/133/133 131/131/131
f 137/137/137 136/136/136 135/135/135
f 138/138/138 137/137/137 135/135/135
f 141/141/141 140/140/140 139/139/139
f 142/142/142 141/141/141 139/139/139
f 145/145/145 144/144/144 143/143/143
f 146/146/146 145/145/145 143/143/143
