g Kit Stand Tripod Bar
v -0 -0.18 -0.008999992
v 0.0063639604 0.19999999 -0.0063639693
v -0 0.19999999 -0.009000008
v 0.0063639604 -0.18 -0.0063639525
v 0.009 0.19999999 -8.3488745E-09
v 0.009 -0.18 8.261453E-09
v 0.0063639604 0.19999999 0.0063639516
v 0.0063639604 -0.18 0.0063639684
v -7.8680495E-10 0.19999999 0.008999991
v -7.8680495E-10 -0.18 0.009000007
v -0.0063639604 0.19999999 0.006363952
v -0.0063639604 -0.18 0.006363969
v -0.009 0.19999999 -8.849601E-09
v -0.009 -0.18 7.760726E-09
v -0.0063639614 0.19999999 -0.0063639693
v -0.0063639614 -0.18 -0.0063639525
v -0 0.19999999 -0.009000008
v -0 -0.18 -0.008999992
v -0.0063639614 0.19999999 -0.0063639693
v -0 0.19999999 -0.009000008
v 0.0063639604 0.19999999 -0.0063639693
v -0.009 0.19999999 -8.849601E-09
v 0.009 0.19999999 -8.3488745E-09
v -0.0063639604 0.19999999 0.006363952
v 0.0063639604 0.19999999 0.0063639516
v -7.8680495E-10 0.19999999 0.008999991
vt 1 0.5
vt 0.875 1
vt 1 1
vt 0.875 0.5
vt 0.75 1
vt 0.75 0.5
vt 0.625 1
vt 0.625 0.5
vt 0.5 1
vt 0.5 0.5
vt 0.375 1
vt 0.375 0.5
vt 0.25 1
vt 0.25 0.5
vt 0.125 1
vt 0.125 0.5
vt 0 1
vt 0 0.5
vt 0.080294356 0.41970563
vt 0.25 0.49
vt 0.41970563 0.41970563
vt 0.010000005 0.25
vt 0.49 0.24999999
vt 0.080294386 0.08029437
vt 0.41970563 0.08029437
vt 0.24999999 0.010000005
vn -0 0 -1
vn 0.70710677 0 -0.70710677
vn -0 0 -1
vn 0.70710677 0 -0.70710677
vn 1 0 0
vn 1 0 0
vn 0.70710677 0 0.70710677
vn 0.7071067 0 0.70710677
vn -0 0 1
vn -0 0 1
vn -0.70710677 0 0.70710677
vn -0.70710677 0 0.70710677
vn -1 0 0
vn -1 0 0
vn -0.7071067 0 -0.70710677
vn -0.70710677 0 -0.70710677
vn -0 0 -1
vn -0 0 -1
vn -0 1 0
vn -0 1 0
vn -0 1 0
vn -0 1 0
vn -0 1 0
vn -0 1 0
vn -0 1 0
vn -0 1 0
g Kit Stand Tripod Bar_0
f 3/3/3 2/2/2 1/1/1
f 2/2/2 4/4/4 1/1/1
f 2/2/2 5/5/5 4/4/4
f 5/5/5 6/6/6 4/4/4
f 5/5/5 7/7/7 6/6/6
f 7/7/7 8/8/8 6/6/6
f 7/7/7 9/9/9 8/8/8
f 9/9/9 10/10/10 8/8/8
f 9/9/9 11/11/11 10/10/10
f 11/11/11 12/12/12 10/10/10
f 11/11/11 13/13/13 12/12/12
f 13/13/13 14/14/14 12/12/12
f 13/13/13 15/15/15 14/14/14
f 15/15/15 16/16/16 14/14/14
f 15/15/15 17/17/17 16/16/16
f 17/17/17 18/18/18 16/16/16
f 21/21/21 20/20/20 19/19/19
f 19/19/19 22/22/22 21/21/21
f 22/22/22 23/23/23 21/21/21
f 22/22/22 24/24/24 23/23/23
f 24/24/24 25/25/25 23/23/23
f 24/24/24 26/26/26 25/25/25
